<?xml version="1.0" encoding="utf-8"?>
<!-- Generator: Adobe Illustrator 18.0.0, SVG Export Plug-In . SVG Version: 6.00 Build 0)  -->
<!DOCTYPE svg PUBLIC "-//W3C//DTD SVG 1.1//EN" "http://www.w3.org/Graphics/SVG/1.1/DTD/svg11.dtd">
<svg version="1.1" id="Calque_1" xmlns="http://www.w3.org/2000/svg" xmlns:xlink="http://www.w3.org/1999/xlink" x="0px" y="0px"
	 viewBox="-18.4 -8.2 61.8 27.5" enable-background="new -18.4 -8.2 61.8 27.5" xml:space="preserve">
<g>
	<path id="path-1" fill="#FFFFFF" d="M20,0.2c-0.3-0.3-0.7-0.3-1,0c-0.3,0.3-0.3,0.7,0,1l3.5,3.6H0.7C0.3,4.8,0,5.1,0,5.5
		s0.3,0.7,0.7,0.7h21.8L19,9.9c-0.3,0.3-0.3,0.7,0,1c0.3,0.3,0.7,0.3,1,0l4.8-4.8C24.9,5.9,25,5.7,25,5.5c0-0.2-0.1-0.4-0.2-0.5
		L20,0.2z"/>
</g>
<title>icon / arrow</title>
<desc>Created with Sketch.</desc>
<g id="A---Portfolio">
	<g id="C.1.4---Project-page---05" transform="translate(-1201.000000, -395.000000)">
		<g id="next-project---hover" transform="translate(1028.000000, 306.000000)">
			<g id="icon-_x2F_-arrow" transform="translate(173.000000, 82.000000)">
				<g id="icon">
					<path id="path-1_1_" fill="#FFFFFF" d="M31.1-0.7c-0.7-0.7-1.8-0.7-2.5,0c-0.7,0.7-0.7,1.8,0,2.5l8.7,8.9h-54
						c-1,0-1.7,0.8-1.7,1.8s0.8,1.8,1.7,1.8h54l-8.7,8.9c-0.7,0.7-0.7,1.8,0,2.5c0.7,0.7,1.8,0.7,2.5,0l11.8-11.9
						c0.3-0.4,0.5-0.8,0.5-1.3c0-0.5-0.2-0.9-0.5-1.3L31.1-0.7z"/>
				</g>
			</g>
		</g>
	</g>
</g>
</svg>
